<svg width="23" height="20" viewBox="0 0 23 20" fill="none" xmlns="http://www.w3.org/2000/svg">
<g clip-path="url(#clip0_2095_2)">
<path d="M21.25 0H1.75C0.783502 0 0 0.783502 0 1.75C0 2.7165 0.783502 3.5 1.75 3.5H21.25C22.2165 3.5 23 2.7165 23 1.75C23 0.783502 22.2165 0 21.25 0Z" fill="#C61D35"/>
<path d="M17.25 7.75H5.75C4.7835 7.75 4 8.5335 4 9.5C4 10.4665 4.7835 11.25 5.75 11.25H17.25C18.2165 11.25 19 10.4665 19 9.5C19 8.5335 18.2165 7.75 17.25 7.75Z" fill="#C61D35"/>
<path d="M12.75 16H10.25C9.2835 16 8.5 16.7835 8.5 17.75C8.5 18.7165 9.2835 19.5 10.25 19.5H12.75C13.7165 19.5 14.5 18.7165 14.5 17.75C14.5 16.7835 13.7165 16 12.75 16Z" fill="#C61D35"/>
</g>
<defs>
<clipPath id="clip0_2095_2">
<rect width="23" height="20" fill="white"/>
</clipPath>
</defs>
</svg>
